<svg width="85" height="32" viewBox="0 0 85 32" fill="none" xmlns="http://www.w3.org/2000/svg">
<path d="M52.9258 21.3828C52.0293 21.3828 51.2471 21.0488 50.5879 20.3809C49.9287 19.7129 49.6035 18.9043 49.6035 17.9639V10.3965H47.6172V17.9639C47.6172 19.4053 48.127 20.627 49.1641 21.6465C50.2012 22.666 51.4492 23.1758 52.9258 23.1758C54.4023 23.1758 55.6504 22.6748 56.6875 21.6553C57.7246 20.6357 58.2432 19.4053 58.2432 17.9639V10.3965H56.2568V17.9639C56.2568 18.8955 55.9229 19.7041 55.2637 20.3721C54.6045 21.0488 53.8223 21.3828 52.9258 21.3828ZM66.5137 15.3535L66.3994 15.2217C66.3291 15.1514 66.2148 15.0635 66.0566 14.9404C65.8984 14.8174 65.7227 14.7031 65.5205 14.5889C65.3096 14.4746 65.0459 14.3779 64.7207 14.2988C64.3955 14.2197 64.0615 14.1758 63.7188 14.1758C62.8398 14.1758 62.1104 14.4307 61.5303 14.9404C60.9502 15.4502 60.6602 16.0391 60.6602 16.6982C60.6602 17.1816 60.7656 17.5947 60.9854 17.9375C61.1963 18.2803 61.4688 18.5352 61.8027 18.6934C62.1367 18.8516 62.4883 19.001 62.8662 19.1328C63.2441 19.2646 63.5957 19.3789 63.9297 19.4668C64.2549 19.5547 64.5273 19.6865 64.7471 19.8535C64.958 20.0205 65.0723 20.2314 65.0723 20.4775C65.0723 20.8115 64.9492 21.0752 64.7119 21.2686C64.4658 21.4619 64.1055 21.5586 63.6309 21.5586C63.2266 21.5586 62.8398 21.4619 62.4619 21.2686C62.084 21.0752 61.8379 20.9082 61.7236 20.7852C61.6094 20.6621 61.5215 20.5654 61.4688 20.4775L60.2998 21.6465L60.4316 21.8135C60.5107 21.9189 60.6426 22.0508 60.8271 22.2002C61.0117 22.3496 61.2314 22.499 61.4775 22.6396C61.7236 22.7891 62.0312 22.9121 62.418 23.0176C62.8047 23.123 63.209 23.1758 63.6309 23.1758C64.5889 23.1758 65.3711 22.9121 65.9688 22.3848C66.5664 21.8574 66.874 21.2246 66.874 20.4775C66.874 20.0029 66.7598 19.5898 66.5488 19.2471C66.3291 18.9131 66.0566 18.6582 65.7227 18.4912C65.3887 18.333 65.0371 18.1836 64.6592 18.0518C64.2812 17.9199 63.9297 17.8057 63.6045 17.7178C63.2705 17.6299 62.998 17.5068 62.7871 17.3311C62.5674 17.1641 62.4619 16.9531 62.4619 16.6982C62.4619 16.4609 62.5674 16.25 62.7959 16.0742C63.0244 15.8984 63.332 15.8018 63.7188 15.8018C64 15.8018 64.29 15.8721 64.5713 16.0039C64.8525 16.1357 65.0459 16.2412 65.1338 16.3291C65.2217 16.417 65.292 16.4785 65.3359 16.5225L66.5137 15.3535ZM76.8496 19.3086L76.9463 18.4121C76.9463 17.1992 76.542 16.1973 75.7334 15.3887C74.9248 14.5801 73.9229 14.1758 72.71 14.1758C71.4971 14.1758 70.46 14.6152 69.5986 15.4766C68.7373 16.3379 68.2979 17.375 68.2979 18.5879C68.2979 19.8535 68.7461 20.9346 69.6338 21.8311C70.5215 22.7275 71.5762 23.1758 72.7979 23.1758C73.2549 23.1758 73.7031 23.1143 74.1338 22.9824C74.5645 22.8506 74.916 22.71 75.1797 22.5518C75.4521 22.3936 75.707 22.2178 75.9443 22.0156C76.1904 21.8135 76.3486 21.6729 76.4189 21.585C76.4893 21.4971 76.542 21.4355 76.5771 21.3828L75.4082 20.2139L75.1357 20.5479C74.96 20.7676 74.6523 20.9873 74.2129 21.2158C73.7734 21.4443 73.3076 21.5586 72.7979 21.5586C72.1035 21.5586 71.5059 21.3389 70.9961 20.8906C70.4863 20.4512 70.1875 19.9238 70.0908 19.3086H76.8496ZM72.7012 15.7139C73.3691 15.7139 73.9141 15.9072 74.3535 16.2939C74.793 16.6807 75.0654 17.1729 75.1709 17.7793H70.1699C70.3281 17.1729 70.627 16.6807 71.0664 16.2939C71.5059 15.9072 72.0508 15.7139 72.7012 15.7139ZM83.7754 15.8896V14.1758H83.3271C83.0283 14.1758 82.7295 14.2197 82.4307 14.2988C82.1318 14.3779 81.8945 14.4658 81.7012 14.5625C81.5078 14.6592 81.332 14.7646 81.1562 14.8877C80.9893 15.0107 80.875 15.0898 80.8223 15.1426L80.708 15.2568V14.3604H78.9062V23H80.708V18.3242C80.708 17.5332 80.9189 16.9092 81.3232 16.4697C81.7275 16.0303 82.2725 15.8018 82.958 15.8018C83.2568 15.8018 83.5293 15.8369 83.7754 15.8896Z" fill="white"/>
<circle cx="16" cy="16" r="16" fill="#FBDE07"/>
</svg>
