<svg width="82" height="24" viewBox="0 0 82 24" fill="none" xmlns="http://www.w3.org/2000/svg">
<path d="M4.40625 0.59375H0.078125V23H4.40625V0.59375Z" fill="#FBDE07"/>
<path d="M12.8188 0.59375H8.49063V23H12.8188V0.59375ZM25.3875 23H29.7V13.2344C29.7 11.4531 29.075 9.96875 27.825 8.78125C26.575 7.59375 24.95 7 22.9813 7C22.2156 7 21.4656 7.125 20.7313 7.34375C20.0125 7.5625 19.4188 7.8125 18.9656 8.07812C18.5281 8.34375 18.1063 8.64062 17.7313 8.98438C17.3563 9.32812 17.1063 9.57812 16.9969 9.71875C16.8875 9.85938 16.7938 9.96875 16.7313 10.0469L19.1219 12.4375L19.4813 12.0625C19.7313 11.7812 20.1375 11.5156 20.7156 11.25C21.3094 10.9844 21.95 10.8438 22.6531 10.8438C23.5125 10.8438 24.1844 11.0625 24.6531 11.4688C25.1375 11.8906 25.3719 12.4219 25.3719 13.0781L20.4031 13.9688C18.9656 14.2344 17.825 14.7969 16.9969 15.6406C16.1844 16.5 15.7625 17.5625 15.7625 18.8438C15.7625 20.0938 16.2625 21.1406 17.2313 22.0156C18.2156 22.8906 19.4813 23.3125 21.0438 23.3125C21.8563 23.3125 22.6375 23.1406 23.3875 22.7969C24.1375 22.4531 24.6375 22.1719 24.8563 21.9531C25.075 21.7344 25.2469 21.5625 25.3719 21.4062L25.3875 23ZM22.1688 19.7969C20.7938 19.7969 20.0906 19.2656 20.0906 18.2031C20.0906 17.2188 20.6844 16.625 21.8563 16.4375L25.3719 15.7969V16.2812C25.3719 17.3906 25.0906 18.25 24.5125 18.875C23.9344 19.5 23.1531 19.7969 22.1688 19.7969ZM32.5031 15.1562C32.5031 17.3438 33.3312 19.25 35.0187 20.875C36.6906 22.5 38.675 23.3125 40.9719 23.3125C41.7844 23.3125 42.5656 23.2031 43.3 22.9688C44.0344 22.7344 44.6281 22.4844 45.0812 22.2031C45.55 21.9219 45.9719 21.6094 46.3625 21.25C46.7687 20.8906 47.0187 20.6406 47.1281 20.4844C47.2375 20.3281 47.3156 20.2188 47.3781 20.125L44.8156 17.4062L44.3937 17.9375C44.1125 18.2812 43.6437 18.625 43.0031 18.9688C42.3625 19.3125 41.6906 19.4844 40.9719 19.4844C39.8469 19.4844 38.8781 19.0625 38.05 18.2188C37.2375 17.375 36.8156 16.3594 36.8156 15.1719C36.8156 13.9844 37.2375 12.9531 38.05 12.1094C38.8625 11.2656 39.8469 10.8438 40.9719 10.8438C41.6906 10.8438 42.3625 11.0469 43.0031 11.4219C43.6437 11.7969 44.0656 12.1094 44.2531 12.3438C44.4406 12.5938 44.5812 12.7812 44.6594 12.9219L47.3781 10.2031L47.1437 9.875C46.9875 9.65625 46.7219 9.375 46.3469 9.0625C45.9875 8.75 45.5656 8.45312 45.0969 8.14062C44.6281 7.82812 44.0344 7.5625 43.3 7.34375C42.5656 7.125 41.7844 7 40.9719 7C38.675 7 36.6906 7.82812 35.0031 9.45312C33.3312 11.0781 32.5031 12.9844 32.5031 15.1562ZM46.2531 0.4375H42.4094L40.4875 3L38.6125 0.4375H34.7375L38.5812 5.23438H42.4094L46.2531 0.4375ZM58.525 23H62.8375V13.2344C62.8375 11.4531 62.2125 9.96875 60.9625 8.78125C59.7125 7.59375 58.0875 7 56.1188 7C55.3531 7 54.6031 7.125 53.8688 7.34375C53.15 7.5625 52.5563 7.8125 52.1031 8.07812C51.6656 8.34375 51.2438 8.64062 50.8688 8.98438C50.4938 9.32812 50.2438 9.57812 50.1344 9.71875C50.025 9.85938 49.9313 9.96875 49.8688 10.0469L52.2594 12.4375L52.6188 12.0625C52.8688 11.7812 53.275 11.5156 53.8531 11.25C54.4469 10.9844 55.0875 10.8438 55.7906 10.8438C56.65 10.8438 57.3219 11.0625 57.7906 11.4688C58.275 11.8906 58.5094 12.4219 58.5094 13.0781L53.5406 13.9688C52.1031 14.2344 50.9625 14.7969 50.1344 15.6406C49.3219 16.5 48.9 17.5625 48.9 18.8438C48.9 20.0938 49.4 21.1406 50.3688 22.0156C51.3531 22.8906 52.6188 23.3125 54.1813 23.3125C54.9938 23.3125 55.775 23.1406 56.525 22.7969C57.275 22.4531 57.775 22.1719 57.9938 21.9531C58.2125 21.7344 58.3844 21.5625 58.5094 21.4062L58.525 23ZM55.3063 19.7969C53.9313 19.7969 53.2281 19.2656 53.2281 18.2031C53.2281 17.2188 53.8219 16.625 54.9938 16.4375L58.5094 15.7969V16.2812C58.5094 17.3906 58.2281 18.25 57.65 18.875C57.0719 19.5 56.2906 19.7969 55.3063 19.7969ZM70.9219 7.3125H66.6094V23H70.9219V14.8438C70.9219 13.6719 71.2031 12.7656 71.7812 12.125C72.3594 11.4844 73.1406 11.1562 74.125 11.1562C75.0156 11.1562 75.75 11.4531 76.3125 12.0469C76.875 12.6406 77.1562 13.4062 77.1562 14.3594V23H81.4688V13.875C81.4688 11.7812 80.9062 10.1094 79.7812 8.85938C78.6562 7.625 77.1875 7 75.3906 7C74.5469 7 73.7344 7.21875 72.9531 7.625C72.1719 8.04688 71.6719 8.375 71.4375 8.625C71.2188 8.875 71.0312 9.07812 70.9062 9.25L70.9219 7.3125Z" fill="white"/>
</svg>
