<svg width="166" height="21" viewBox="0 0 166 21" fill="none" xmlns="http://www.w3.org/2000/svg">
<path d="M24.0389 4.5791C24.0389 4.5791 24.0498 8.39825 24.0389 9.94025C24.0389 11.1785 23.2965 12.2879 22.2162 13.1348C21.0873 14.0219 17.5416 16.4667 17.5416 16.4667L13.1598 19.5896L0 10.2088V4.92177L1.48367 5.97893L13.1574 14.2989H13.1647C13.1647 14.2989 18.6255 10.4555 21.3243 8.48088C21.3316 8.48088 21.8407 8.11634 22.0096 7.98511C23.1883 7.09563 23.8761 5.89023 24.0389 4.5791Z" fill="#070707"/>
<path d="M17.5453 4.92664C17.5453 4.92664 17.3582 5.07002 17.2549 5.13321L13.1647 8.04952L8.79028 4.92664L13.1647 1.80497L13.1733 1.81226C13.7966 1.41738 14.5218 1.21337 15.2596 1.22535C16.9608 1.22535 18.3424 2.21933 18.3424 3.44418C18.3412 4.01164 18.0386 4.53293 17.5453 4.92664Z" fill="#070707"/>
<path d="M36.5061 15.9976H33.4379V0.112183H36.5061V15.9976Z" fill="#070707"/>
<path d="M42.594 15.9976H39.5258V0.112183H42.594V15.9976Z" fill="#070707"/>
<path d="M55.0089 14.486C53.8391 15.642 52.4599 16.22 50.8713 16.22C49.2828 16.22 47.9016 15.642 46.7278 14.486C45.5539 13.3308 44.9666 11.9812 44.9658 10.4372C44.965 8.89319 45.5523 7.54359 46.7278 6.38841C47.9032 5.23242 49.2844 4.65442 50.8713 4.65442C52.4583 4.65442 53.8375 5.23242 55.0089 6.38841C56.1786 7.5444 56.7639 8.894 56.7647 10.4372C56.7655 11.9804 56.1803 13.33 55.0089 14.486ZM48.9551 12.5418C49.1977 12.809 49.4935 13.0225 49.8235 13.1687C50.1535 13.3148 50.5104 13.3903 50.8713 13.3903C51.2323 13.3903 51.5892 13.3148 51.9192 13.1687C52.2492 13.0225 52.545 12.809 52.7876 12.5418C53.0541 12.2636 53.2628 11.9353 53.4017 11.576C53.5406 11.2166 53.607 10.8333 53.5969 10.4482C53.6066 10.0623 53.5401 9.67838 53.4013 9.31828C53.2624 8.95818 53.0539 8.62901 52.7876 8.34963C52.5458 8.08107 52.2503 7.86634 51.9202 7.71936C51.59 7.57237 51.2327 7.49642 50.8713 7.49642C50.51 7.49642 50.1527 7.57237 49.8225 7.71936C49.4924 7.86634 49.1969 8.08107 48.9551 8.34963C48.6888 8.62901 48.4803 8.95818 48.3414 9.31828C48.2026 9.67838 48.1361 10.0623 48.1458 10.4482C48.1365 10.8323 48.2032 11.2144 48.3421 11.5727C48.481 11.931 48.6893 12.2582 48.9551 12.5357V12.5418Z" fill="#070707"/>
<path d="M61.6848 15.887L57.3748 4.87549H60.5547L63.1576 12.2538L65.7725 4.87549H68.9403L64.5234 16.6744C63.5108 19.3987 62.0741 20.7613 60.2133 20.7621C59.8828 20.7624 59.553 20.7327 59.2278 20.6734C58.9831 20.6347 58.742 20.5753 58.5073 20.496L58.2861 20.4182V17.7036C58.641 17.8627 59.0275 17.9387 59.4162 17.926C60.3389 17.926 60.9813 17.5088 61.3434 16.6744L61.6848 15.887Z" fill="#070707"/>
<path d="M76.8083 5.0529C77.3575 5.31861 77.7468 5.57702 77.976 5.82815L78.3199 6.23886V0.112183H81.3772V15.9976H78.3199V14.6354C78.2779 14.6958 78.2316 14.753 78.1814 14.8067C78.1182 14.8772 77.9853 15.0028 77.7828 15.1834C77.5783 15.3654 77.3574 15.5281 77.123 15.6695C76.8346 15.8361 76.5258 15.9648 76.2044 16.0522C75.8227 16.1637 75.427 16.2197 75.0293 16.2187C73.589 16.2187 72.339 15.6594 71.2794 14.5406C70.2199 13.4219 69.6901 12.0541 69.6901 10.4371C69.6901 8.81696 70.2199 7.44873 71.2794 6.33243C72.339 5.21613 73.589 4.65676 75.0293 4.65434C75.645 4.64967 76.2535 4.786 76.8083 5.0529ZM77.5252 12.6389C78.0566 12.063 78.3223 11.3282 78.3223 10.4347C78.3223 9.54118 78.0566 8.80886 77.5252 8.23775C77.2818 7.96778 76.9845 7.75195 76.6524 7.60421C76.3203 7.45647 75.9609 7.38013 75.5974 7.38013C75.2339 7.38013 74.8745 7.45647 74.5424 7.60421C74.2103 7.75195 73.913 7.96778 73.6696 8.23775C73.1374 8.80967 72.8717 9.5428 72.8725 10.4371C72.8733 11.3315 73.1382 12.0654 73.6672 12.6389C73.9095 12.911 74.2067 13.1287 74.5392 13.2778C74.8716 13.4269 75.2318 13.504 75.5962 13.504C75.9606 13.504 76.3208 13.4269 76.6532 13.2778C76.9857 13.1287 77.2829 12.911 77.5252 12.6389Z" fill="#070707"/>
<path d="M90.7155 8.16614C90.6484 8.08084 90.5762 7.99969 90.4992 7.92311C90.3103 7.76028 90.0997 7.62451 89.8734 7.51969C89.5747 7.35801 89.241 7.27206 88.9013 7.26937C88.4797 7.26937 88.1479 7.36051 87.9037 7.54156C87.6595 7.72261 87.5392 7.93162 87.5392 8.16735C87.5392 8.45574 87.7129 8.69553 88.0605 8.88671C88.464 9.10269 88.8892 9.27539 89.3291 9.40192C89.8273 9.55422 90.3311 9.73527 90.8407 9.94509C91.3554 10.1592 91.8005 10.5122 92.1263 10.9646C92.4722 11.4336 92.6455 12.0153 92.6464 12.7095C92.6464 13.7059 92.2531 14.5403 91.4665 15.2127C90.6799 15.885 89.5972 16.2208 88.2184 16.22C87.6503 16.2228 87.0842 16.1521 86.5343 16.0098C86.0806 15.9002 85.6443 15.7284 85.2377 15.4994C84.9358 15.3203 84.6453 15.1226 84.3677 14.9077C84.1736 14.7604 83.9938 14.5952 83.8306 14.4143L83.6763 14.181L85.3775 12.4871C85.4627 12.6063 85.557 12.7189 85.6594 12.8237C85.9057 13.0428 86.1793 13.229 86.4735 13.3778C86.8665 13.6082 87.3133 13.7306 87.7688 13.7326C88.2549 13.7326 88.6223 13.6383 88.8709 13.4495C88.987 13.3656 89.0808 13.2547 89.1443 13.1264C89.2078 12.9981 89.2391 12.8563 89.2355 12.7132C89.2355 12.4094 89.0629 12.1566 88.7154 11.9537C88.3115 11.7269 87.8819 11.5491 87.4359 11.4239C86.9217 11.2706 86.4169 11.0872 85.9243 10.8747C85.4223 10.6579 84.9852 10.3146 84.6557 9.87825C84.3098 9.42704 84.1364 8.85998 84.1356 8.17707C84.1356 7.28598 84.5508 6.47589 85.3811 5.74681C86.2114 5.01774 87.2325 4.65603 88.4444 4.6617C89.1743 4.65347 89.8976 4.80094 90.5661 5.09429C91.2141 5.38268 91.6625 5.66297 91.9112 5.93516L92.2988 6.36775L90.7155 8.16614Z" fill="#070707"/>
<path d="M109.144 5.0529C109.694 5.31942 110.084 5.57986 110.313 5.83423L110.657 6.24494V0.112183H113.714V15.9976H110.657V14.6354C110.615 14.6955 110.568 14.7527 110.518 14.8067C110.455 14.8772 110.323 15.0024 110.119 15.1834C109.915 15.3657 109.694 15.5284 109.46 15.6695C109.171 15.8363 108.862 15.965 108.54 16.0522C108.159 16.1637 107.764 16.2197 107.366 16.2187C105.927 16.2187 104.677 15.6594 103.616 14.5406C102.556 13.4219 102.026 12.0541 102.027 10.4371C102.027 8.81696 102.557 7.44873 103.616 6.33243C104.676 5.21613 105.926 4.65676 107.366 4.65434C107.982 4.64951 108.59 4.78586 109.144 5.0529ZM109.859 12.6389C110.391 12.063 110.657 11.3282 110.657 10.4347C110.657 9.54118 110.391 8.80805 109.859 8.23532C109.615 7.96522 109.318 7.74924 108.986 7.60141C108.654 7.45357 108.295 7.37717 107.931 7.37717C107.568 7.37717 107.209 7.45357 106.877 7.60141C106.545 7.74924 106.247 7.96522 106.004 8.23532C105.472 8.80724 105.206 9.54037 105.206 10.4347C105.206 11.329 105.472 12.0638 106.004 12.6389C106.246 12.9108 106.543 13.1283 106.875 13.2772C107.208 13.4262 107.567 13.5032 107.931 13.5032C108.295 13.5032 108.655 13.4262 108.987 13.2772C109.32 13.1283 109.616 12.9108 109.859 12.6389Z" fill="#070707"/>
<path d="M119.388 2.93743C119.064 3.24689 118.621 3.40202 118.058 3.40283C117.541 3.40283 117.13 3.24729 116.823 2.93743C116.667 2.77311 116.546 2.57908 116.467 2.36695C116.388 2.15482 116.353 1.92896 116.363 1.70286C116.353 1.47626 116.389 1.24992 116.469 1.03765C116.549 0.825393 116.671 0.631664 116.829 0.46829C116.991 0.310778 117.184 0.18813 117.395 0.107887C117.607 0.0276435 117.832 -0.00849905 118.058 0.00168081C118.62 0.00168081 119.063 0.156812 119.388 0.467075C119.551 0.627209 119.678 0.8199 119.762 1.03261C119.846 1.24532 119.884 1.47327 119.874 1.70165C119.884 1.93019 119.846 2.15832 119.762 2.37121C119.678 2.58411 119.551 2.77702 119.388 2.93743ZM119.654 15.9976H116.584V4.87556H119.654V15.9976Z" fill="#070707"/>
<path d="M130.312 14.181C130.27 14.2418 130.223 14.2995 130.173 14.3535C130.11 14.4228 129.977 14.5492 129.775 14.7302C129.571 14.9109 129.352 15.0735 129.121 15.2163C128.832 15.3842 128.523 15.5145 128.201 15.6039C127.818 15.7185 127.421 15.7763 127.021 15.7752C125.752 15.7752 124.601 15.2232 123.57 14.119C122.563 13.0708 122.008 11.6685 122.026 10.2148C122.008 8.76072 122.563 7.35795 123.57 6.30937C124.601 5.20441 125.751 4.65234 127.021 4.65315C127.638 4.64946 128.248 4.78617 128.804 5.05293C129.358 5.31863 129.745 5.57705 129.967 5.82818L130.31 6.23889V4.87552H133.368V15.0899C133.368 16.6931 132.808 18.039 131.69 19.1278C130.571 20.2165 129.166 20.7613 127.474 20.7621C126.858 20.7639 126.245 20.6796 125.652 20.5118C125.145 20.3781 124.658 20.1809 124.201 19.9249C123.847 19.721 123.51 19.4894 123.192 19.2323C122.967 19.0577 122.763 18.857 122.585 18.6344L122.374 18.3792L124.303 16.5566C124.408 16.6991 124.521 16.8362 124.641 16.9673C124.791 17.1374 125.133 17.3569 125.665 17.6259C126.192 17.8939 126.775 18.0326 127.366 18.0305C128.275 18.0305 128.993 17.7664 129.521 17.2382C130.048 16.7101 130.312 15.9919 130.313 15.0838L130.312 14.181ZM125.931 12.1651C126.154 12.4135 126.427 12.6112 126.733 12.7449C127.038 12.8786 127.369 12.9453 127.703 12.9403C128.045 12.9405 128.384 12.8697 128.698 12.7325C129.011 12.5953 129.293 12.3947 129.525 12.1432C129.78 11.8905 129.981 11.5888 130.116 11.2563C130.251 10.9239 130.318 10.5675 130.312 10.2087C130.319 9.85169 130.254 9.49689 130.12 9.16583C129.986 8.83477 129.786 8.53434 129.533 8.28274C129.3 8.03231 129.018 7.83268 128.704 7.69635C128.39 7.56002 128.052 7.48993 127.71 7.49048C127.375 7.4848 127.043 7.55095 126.737 7.68448C126.43 7.81801 126.155 8.0158 125.931 8.26451C125.445 8.77892 125.202 9.42901 125.202 10.2148C125.202 11.0006 125.445 11.6507 125.931 12.1651Z" fill="#070707"/>
<path d="M138.932 2.93743C138.608 3.24689 138.165 3.40202 137.602 3.40283C137.086 3.40283 136.674 3.2477 136.367 2.93743C136.211 2.77311 136.09 2.57908 136.011 2.36695C135.932 2.15482 135.897 1.92896 135.907 1.70286C135.897 1.47626 135.933 1.24992 136.013 1.03765C136.093 0.825393 136.215 0.631664 136.373 0.46829C136.535 0.310778 136.728 0.18813 136.939 0.107887C137.151 0.0276435 137.376 -0.00849905 137.602 0.00168081C138.164 0.00168081 138.607 0.156812 138.932 0.467075C139.095 0.627071 139.223 0.819739 139.307 1.03248C139.39 1.24522 139.428 1.47325 139.418 1.70165C139.428 1.93023 139.39 2.15844 139.307 2.37138C139.223 2.58432 139.095 2.77721 138.932 2.93743ZM139.198 15.9976H136.13V4.87556H139.198V15.9976Z" fill="#070707"/>
<path d="M143.62 1.38208H146.344V4.89502H148.61V7.61934H146.35V12.2611C146.348 12.4276 146.381 12.5927 146.447 12.7455C146.513 12.8984 146.61 13.0356 146.733 13.1482C146.863 13.2703 147.016 13.3654 147.182 13.428C147.349 13.4906 147.527 13.5194 147.705 13.5127C147.901 13.5132 148.096 13.4924 148.287 13.4507C148.433 13.4249 148.576 13.3842 148.714 13.3292L148.846 13.2843V15.8956C148.19 16.1326 147.495 16.2451 146.797 16.2273C144.456 16.2273 143.286 14.9425 143.286 12.3729V7.61934H141.358V4.89502H142.377C142.545 4.8962 142.712 4.85998 142.866 4.78897C143.019 4.71796 143.154 4.61391 143.263 4.4843C143.514 4.18874 143.644 3.80883 143.627 3.42107L143.62 1.38208Z" fill="#070707"/>
<path d="M157.116 14.8687C157.001 15.0019 156.879 15.1292 156.752 15.2503C156.59 15.4026 156.245 15.6019 155.716 15.8481C155.197 16.0934 154.629 16.2204 154.054 16.22C152.947 16.22 152.046 15.9117 151.352 15.2952C150.657 14.6788 150.31 13.9311 150.31 13.0521C150.31 12.1432 150.602 11.3862 151.185 10.781C151.768 10.1759 152.571 9.7826 153.592 9.60114L157.116 8.96928C157.122 8.75311 157.08 8.53837 156.991 8.34089C156.903 8.14341 156.772 7.96823 156.607 7.82827C156.267 7.5334 155.794 7.38596 155.189 7.38596C154.716 7.37595 154.246 7.46839 153.812 7.65694C153.399 7.84569 153.108 8.0397 152.939 8.23898L152.683 8.5051L150.982 6.80999C151.026 6.75045 151.088 6.67025 151.165 6.56697C151.326 6.38299 151.5 6.21081 151.686 6.05175C151.956 5.8063 152.251 5.5889 152.566 5.40287C152.962 5.18193 153.382 5.00742 153.818 4.8828C154.33 4.7231 154.862 4.64118 155.398 4.63977C156.801 4.63977 157.946 5.05899 158.833 5.89743C159.72 6.73587 160.163 7.78898 160.163 9.05676V15.983H157.116V14.8687ZM156.501 13.0679C156.912 12.6296 157.117 12.0184 157.116 11.2343V10.8916L154.624 11.3461C153.789 11.4789 153.372 11.8961 153.372 12.5977C153.372 13.351 153.863 13.7277 154.845 13.7277C155.539 13.731 156.09 13.511 156.499 13.0679H156.501Z" fill="#070707"/>
<path d="M166 15.9976H162.932V0.112183H166V15.9976Z" fill="#070707"/>
</svg>
