<svg width="19" height="20" viewBox="0 0 19 20" fill="none" xmlns="http://www.w3.org/2000/svg">
<path d="M14.8124 12.75C14.2978 12.7526 13.7903 12.8707 13.3275 13.0956C12.8646 13.3205 12.4581 13.6464 12.138 14.0494L7.11241 10.9075C7.29557 10.3164 7.29557 9.68366 7.11241 9.09252L12.138 5.95064C12.6481 6.58226 13.3653 7.01295 14.1625 7.16642C14.9598 7.31989 15.7856 7.18624 16.4937 6.78914C17.2018 6.39203 17.7465 5.75711 18.0314 4.99684C18.3162 4.23657 18.3227 3.40003 18.0498 2.6354C17.7769 1.87078 17.2422 1.22742 16.5403 0.819302C15.8385 0.411181 15.0149 0.26464 14.2154 0.405637C13.4158 0.546633 12.692 0.966067 12.1721 1.58964C11.6522 2.21321 11.3698 3.00067 11.3749 3.81252C11.3782 4.11995 11.4244 4.42542 11.5124 4.72002L6.48679 7.86189C6.04311 7.30336 5.43666 6.89668 4.7515 6.69823C4.06635 6.49978 3.33643 6.51939 2.66292 6.75434C1.98941 6.98929 1.40567 7.42795 0.992623 8.0095C0.579571 8.59106 0.357666 9.2867 0.357666 10C0.357666 10.7133 0.579571 11.409 0.992623 11.9905C1.40567 12.5721 1.98941 13.0107 2.66292 13.2457C3.33643 13.4806 4.06635 13.5003 4.7515 13.3018C5.43666 13.1034 6.04311 12.6967 6.48679 12.1381L11.5124 15.28C11.4244 15.5746 11.3782 15.8801 11.3749 16.1875C11.3749 16.8674 11.5765 17.532 11.9542 18.0973C12.332 18.6626 12.8688 19.1032 13.4969 19.3634C14.1251 19.6235 14.8162 19.6916 15.483 19.559C16.1498 19.4263 16.7623 19.0989 17.2431 18.6182C17.7238 18.1375 18.0512 17.525 18.1839 16.8581C18.3165 16.1913 18.2484 15.5002 17.9882 14.872C17.7281 14.2439 17.2875 13.7071 16.7222 13.3293C16.1569 12.9516 15.4923 12.75 14.8124 12.75ZM14.8124 1.75002C15.2203 1.75002 15.6191 1.87098 15.9583 2.09761C16.2975 2.32424 16.5618 2.64636 16.7179 3.02323C16.874 3.40011 16.9149 3.81481 16.8353 4.21489C16.7557 4.61498 16.5593 4.98248 16.2708 5.27093C15.9824 5.55937 15.6149 5.75581 15.2148 5.83539C14.8147 5.91497 14.4 5.87413 14.0231 5.71802C13.6463 5.56191 13.3241 5.29756 13.0975 4.95838C12.8709 4.61921 12.7499 4.22044 12.7499 3.81252C12.7499 3.26551 12.9672 2.7409 13.354 2.35411C13.7408 1.96732 14.2654 1.75002 14.8124 1.75002ZM3.81241 12.0625C3.40449 12.0625 3.00573 11.9416 2.66655 11.7149C2.32737 11.4883 2.06302 11.1662 1.90691 10.7893C1.75081 10.4124 1.70996 9.99773 1.78954 9.59764C1.86913 9.19756 2.06556 8.83006 2.35401 8.54161C2.64245 8.25316 3.00995 8.05673 3.41004 7.97715C3.81013 7.89757 4.22482 7.93841 4.6017 8.09452C4.97857 8.25062 5.30069 8.51498 5.52732 8.85415C5.75395 9.19333 5.87491 9.59209 5.87491 10C5.87491 10.547 5.65761 11.0716 5.27082 11.4584C4.88403 11.8452 4.35942 12.0625 3.81241 12.0625ZM14.8124 18.25C14.4045 18.25 14.0057 18.1291 13.6665 17.9024C13.3274 17.6758 13.063 17.3537 12.9069 16.9768C12.7508 16.5999 12.71 16.1852 12.7895 15.7851C12.8691 15.3851 13.0656 15.0176 13.354 14.7291C13.6425 14.4407 14.01 14.2442 14.41 14.1646C14.8101 14.0851 15.2248 14.1259 15.6017 14.282C15.9786 14.4381 16.3007 14.7025 16.5273 15.0417C16.754 15.3808 16.8749 15.7796 16.8749 16.1875C16.8749 16.7345 16.6576 17.2591 16.2708 17.6459C15.884 18.0327 15.3594 18.25 14.8124 18.25Z" fill="#070707"/>
</svg>
